{"glyphs":{"0":{"ha":771,"x_min":0,"x_max":0,"o":"m 701 603 b 701 615 701 607 701 611 b 701 628 701 619 701 624 b 556 886 697 736 640 831 b 386 936 507 918 449 936 b 217 886 324 936 265 918 b 131 806 183 865 154 838 l 271 665 b 386 744 290 711 335 744 b 511 622 453 744 507 690 l 511 425 l 693 243 b 703 307 699 264 701 285 b 703 319 703 311 703 315 b 703 332 703 324 703 328 z m 388 190 b 264 307 324 190 271 242 l 264 513 l 82 694 b 74 636 78 675 75 656 b 74 615 74 629 74 622 b 74 594 74 608 74 601 l 74 342 b 74 321 74 335 74 328 b 74 300 74 314 74 307 b 265 26 82 176 158 72 b 389 0 303 10 344 0 b 513 26 433 0 475 10 b 644 135 565 50 611 88 l 504 275 b 389 194 486 228 442 194 z "},"1":{"ha":692,"x_min":0,"x_max":0,"o":"m 419 0 l 622 0 l 622 235 l 419 438 z m 336 936 l 69 669 l 356 669 l 419 733 l 419 603 l 622 400 l 622 935 z "},"2":{"ha":904,"x_min":0,"x_max":0,"o":"m 219 540 l 433 540 l 426 551 l 425 554 b 404 621 411 574 404 597 b 438 703 404 653 417 682 b 522 739 458 725 489 739 b 640 621 588 739 640 686 b 613 546 640 593 631 567 l 603 536 l 740 399 b 754 415 746 404 750 410 b 832 622 804 472 832 546 b 811 732 832 660 825 697 b 699 876 789 790 750 840 b 518 933 646 914 583 933 b 294 840 431 933 351 897 b 229 743 267 813 244 779 b 204 621 213 706 204 664 b 213 547 204 596 207 571 z m 533 196 l 656 318 l 518 456 l 64 1 l 804 1 l 804 196 z "},"3":{"ha":693,"x_min":0,"x_max":0,"o":"m 244 203 l 122 203 b 122 203 122 203 122 203 l 71 203 l 71 0 l 353 0 b 369 0 358 0 364 0 b 386 0 375 0 381 0 b 438 8 404 1 421 4 l 244 201 z m 508 464 b 624 676 578 510 624 588 b 619 726 624 693 622 710 b 390 928 597 836 504 919 b 369 928 383 928 376 928 b 349 928 363 928 356 928 l 67 928 l 67 725 l 376 725 b 418 686 397 722 414 707 b 418 675 418 683 418 679 b 394 632 418 650 401 636 b 367 624 386 626 376 624 l 258 518 l 258 413 l 367 301 b 394 293 376 301 386 299 b 418 250 401 289 418 275 b 418 240 418 246 418 243 b 399 210 415 228 408 217 l 542 67 b 617 200 579 101 606 147 b 621 250 619 217 621 233 b 506 463 621 339 575 417 z "},"4":{"ha":732,"x_min":0,"x_max":0,"o":"m 461 931 l 461 571 l 271 571 l 271 931 l 69 931 l 69 369 l 564 369 l 663 271 l 663 931 z m 461 0 l 663 0 l 663 107 l 461 308 z "},"5":{"ha":761,"x_min":0,"x_max":0,"o":"m 388 201 l 71 201 l 71 0 l 414 0 b 593 101 483 15 546 51 l 451 243 b 388 203 435 225 413 211 z m 675 453 b 618 564 663 493 643 531 b 503 661 588 604 549 638 l 274 661 l 274 665 b 274 665 274 665 274 665 l 274 728 l 667 728 l 667 929 l 74 929 l 74 565 l 72 565 l 72 454 l 92 454 b 92 454 92 454 92 454 l 449 454 l 449 454 b 492 371 471 432 486 403 l 663 200 b 663 204 663 201 663 203 b 693 349 682 249 693 297 b 676 456 693 386 688 422 z "},"6":{"ha":714,"x_min":0,"x_max":0,"o":"m 597 446 l 443 292 b 443 288 443 290 443 289 b 357 201 443 240 404 201 b 353 201 356 201 354 201 b 272 285 308 204 274 240 b 272 285 272 285 272 285 l 272 292 b 360 375 274 338 313 375 b 364 375 361 375 363 375 l 518 529 b 360 575 472 558 418 575 b 272 563 329 575 300 571 l 272 640 l 564 932 l 279 932 l 71 724 l 71 294 b 71 286 71 292 71 289 b 71 278 71 283 71 281 b 118 128 72 222 89 171 b 199 44 139 94 167 67 b 271 11 221 31 244 19 b 358 -1 299 3 328 -1 b 646 286 517 -1 646 128 b 597 444 646 344 628 399 z "},"7":{"ha":704,"x_min":0,"x_max":0,"o":"m 147 0 l 354 0 l 422 222 l 264 381 z m 69 917 l 69 718 l 367 718 l 301 504 l 460 346 l 574 718 l 635 917 z "},"8":{"ha":704,"x_min":0,"x_max":0,"o":"m 564 469 b 589 501 574 479 582 490 b 635 656 618 546 635 599 b 353 938 635 811 508 938 b 199 892 296 938 243 921 l 351 739 b 351 739 351 739 351 739 b 436 654 399 739 436 701 b 436 654 436 654 436 654 b 358 571 436 610 401 574 b 354 571 357 571 356 571 b 269 656 307 571 269 608 b 269 660 269 657 269 658 l 118 811 b 69 654 88 767 69 713 b 140 467 69 582 96 517 b 69 279 96 417 69 351 b 351 -3 69 124 196 -3 b 633 279 507 -3 633 124 b 633 292 633 283 633 288 b 563 467 631 358 604 419 z m 350 194 b 265 279 303 194 265 232 b 350 364 265 326 303 364 b 435 279 397 364 435 326 b 350 194 435 232 397 194 z "},"9":{"ha":707,"x_min":0,"x_max":0,"o":"m 117 478 l 268 629 b 268 633 268 631 268 632 b 354 719 268 681 307 719 b 358 719 356 719 357 719 b 438 639 401 717 436 682 b 438 639 438 639 438 639 l 438 632 b 353 550 436 586 399 550 b 349 550 351 550 350 550 l 197 399 b 353 353 242 369 296 353 b 438 365 382 353 411 357 l 438 289 l 150 1 l 431 1 l 636 207 l 636 629 b 636 638 636 632 636 635 b 636 646 636 640 636 643 b 590 796 635 701 618 753 b 510 876 569 828 542 856 b 439 910 488 890 464 901 b 354 922 413 918 383 922 b 71 639 197 922 71 796 b 117 482 71 581 88 526 z "},"\n":{"ha":0,"x_min":0,"x_max":0,"o":""},"\r":{"ha":0,"x_min":0,"x_max":0,"o":""}," ":{"ha":660,"x_min":0,"x_max":0,"o":""},"!":{"ha":338,"x_min":0,"x_max":0,"o":"m 69 964 l 69 381 l 268 182 l 268 964 z m 69 0 l 268 0 l 268 19 l 69 218 z "},"?":{"ha":821,"x_min":0,"x_max":0,"o":"m 339 238 l 339 0 l 544 0 l 544 32 l 394 182 z m 725 797 b 410 1011 675 922 553 1011 b 68 686 226 1011 76 867 l 275 686 b 410 804 283 753 340 804 b 486 781 438 804 464 796 b 535 719 508 765 525 744 b 544 669 542 704 544 688 b 529 607 544 644 538 624 l 339 417 l 339 407 l 417 329 l 479 267 l 544 201 l 544 332 l 600 388 b 632 411 611 394 622 403 b 667 446 644 422 656 433 b 750 668 718 506 750 583 b 726 794 750 713 742 756 z "},"A":{"ha":1318,"x_min":0,"x_max":0,"o":"m 69 0 l 346 0 l 615 443 l 478 671 z m 660 971 l 522 744 l 915 93 l 972 -1 l 1249 -1 z "},"B":{"ha":965,"x_min":0,"x_max":0,"o":"m 896 674 b 888 743 896 697 893 721 b 614 956 856 868 743 956 l 68 956 l 68 561 l 304 325 l 304 353 l 561 353 b 633 281 601 353 633 321 b 561 208 633 240 601 208 l 304 208 l 304 218 l 68 454 l 68 3 l 614 3 b 635 3 621 3 628 3 b 885 214 756 13 856 97 b 893 283 890 236 893 260 b 813 481 893 357 864 428 b 893 678 864 533 893 604 z m 303 744 l 560 744 b 632 672 600 744 632 713 b 560 600 632 632 600 600 l 367 600 l 304 663 z "},"C":{"ha":1114,"x_min":0,"x_max":0,"o":"m 339 601 b 386 667 351 625 367 647 b 563 740 433 714 496 740 b 739 667 629 740 692 714 b 793 586 763 643 781 617 l 799 575 l 1049 575 l 1043 599 b 874 872 1019 706 960 803 b 564 982 786 943 676 982 b 160 771 403 982 251 903 l 150 758 l 329 579 z m 792 397 b 738 317 779 367 761 340 b 672 269 718 297 696 282 b 650 260 665 265 658 263 b 576 244 626 251 601 246 b 542 246 565 244 553 244 b 386 317 483 250 428 275 b 315 472 344 358 319 414 l 315 479 l 110 685 l 100 656 b 72 492 82 603 72 547 b 217 144 72 361 124 238 b 564 0 310 51 433 0 b 756 38 631 0 694 13 b 789 53 767 42 778 47 b 951 188 851 85 908 132 b 1043 381 996 244 1028 311 l 1049 404 l 799 404 z "},"D":{"ha":1088,"x_min":0,"x_max":0,"o":"m 935 749 b 935 749 935 749 935 749 b 544 953 846 876 700 953 l 69 953 l 69 682 l 307 444 l 307 714 l 544 714 b 739 611 622 714 694 675 l 739 611 b 739 611 739 611 739 611 b 781 475 767 571 781 524 b 740 339 781 426 767 379 b 740 338 740 339 740 339 b 561 236 699 278 633 240 b 544 236 556 236 550 236 l 307 236 l 307 338 l 69 575 l 69 -1 l 544 -1 b 935 203 700 -1 846 75 b 939 207 936 204 938 206 b 1022 475 993 286 1022 379 b 939 744 1022 572 993 665 z "},"E":{"ha":936,"x_min":0,"x_max":0,"o":"m 306 236 l 306 303 l 69 539 l 69 -1 l 865 -1 l 865 235 z m 865 357 l 865 593 l 454 593 l 331 717 l 865 717 l 865 953 l 68 953 l 68 644 l 357 356 z "},"F":{"ha":963,"x_min":0,"x_max":0,"o":"m 69 818 l 69 0 l 306 0 l 306 358 l 631 358 l 631 594 l 292 594 z m 68 954 l 68 926 l 304 690 l 304 718 l 892 718 l 892 954 z "},"G":{"ha":1093,"x_min":0,"x_max":0,"o":"m 353 619 b 376 647 360 629 368 639 b 546 718 422 693 482 718 b 715 647 610 718 669 693 b 768 569 738 625 756 599 l 774 558 l 1018 558 l 1013 582 b 817 871 986 700 917 803 b 547 956 738 926 644 956 b 183 788 407 956 274 894 l 172 774 l 342 604 z m 599 400 l 685 281 b 547 238 644 253 597 238 b 378 308 483 238 424 263 b 307 478 332 354 307 414 b 310 515 307 490 308 503 l 311 525 l 128 708 l 117 683 b 71 478 86 619 71 550 b 211 140 71 350 121 231 b 549 0 301 50 421 0 b 789 65 633 0 717 22 l 789 1 l 1025 1 l 1025 397 z "},"H":{"ha":971,"x_min":0,"x_max":0,"o":"m 69 0 l 306 0 l 306 332 l 69 568 z m 665 954 l 665 594 l 485 594 l 306 774 l 306 954 l 69 954 l 69 675 l 388 357 l 665 357 l 665 -1 l 901 -1 l 901 953 z "},"I":{"ha":375,"x_min":0,"x_max":0,"o":"m 69 954 l 69 836 l 306 600 l 306 954 z m 69 0 l 306 0 l 306 492 l 69 728 z "},"J":{"ha":896,"x_min":0,"x_max":0,"o":"m 589 933 l 589 707 l 826 469 l 826 935 z m 589 600 l 589 354 b 547 272 583 314 561 286 b 460 231 533 258 504 235 b 451 231 457 231 454 231 b 443 231 449 231 446 231 b 435 231 440 231 438 231 b 426 231 432 231 429 231 b 414 231 422 231 418 231 b 414 231 414 231 414 231 b 383 240 403 233 393 236 b 379 240 382 240 381 240 b 349 260 367 246 357 253 b 344 264 347 261 346 263 b 336 272 342 267 339 269 b 308 314 328 281 317 294 b 296 354 303 325 299 339 l 67 354 b 379 7 76 178 208 35 b 388 7 382 7 385 7 b 388 7 388 7 388 7 b 417 4 397 6 407 4 b 442 4 425 4 433 4 b 450 4 444 4 447 4 b 467 4 456 4 461 4 b 483 4 472 4 478 4 b 506 8 492 6 499 7 l 506 8 b 818 369 681 38 814 188 l 818 369 l 818 369 z "},"K":{"ha":1124,"x_min":0,"x_max":0,"o":"m 69 0 l 306 0 l 306 306 l 69 542 z m 629 425 l 1015 681 l 1024 686 l 1024 969 l 458 596 l 81 956 l 69 956 l 69 651 l 719 1 l 1054 1 z "},"L":{"ha":803,"x_min":0,"x_max":0,"o":"m 342 236 l 306 236 l 306 954 l 69 954 l 69 0 l 578 0 l 347 231 z m 450 236 l 686 0 l 733 0 l 733 236 z "},"M":{"ha":1093,"x_min":0,"x_max":0,"o":"m 69 0 l 306 0 l 306 313 l 69 549 z m 986 954 l 546 514 l 106 954 l 68 954 l 68 657 l 304 421 l 304 421 l 544 179 l 785 421 l 785 0 l 1021 0 l 1021 954 z "},"N":{"ha":1018,"x_min":0,"x_max":0,"o":"m 69 0 l 306 0 l 306 313 l 69 549 z m 718 750 l 713 744 l 713 347 l 113 947 l 107 953 l 69 953 l 69 656 l 306 419 l 306 419 l 457 268 l 717 8 l 726 -1 l 949 -1 l 949 981 z "},"O":{"ha":1093,"x_min":0,"x_max":0,"o":"m 885 815 b 547 956 794 906 675 956 b 254 856 440 956 339 921 l 238 842 l 406 674 l 418 682 b 546 718 456 706 500 718 b 715 647 610 718 669 693 b 786 478 761 601 786 542 b 750 350 786 432 774 388 l 742 338 l 910 169 l 924 186 b 1024 479 989 271 1024 372 b 883 817 1024 607 974 726 z m 674 276 b 546 240 636 253 592 240 b 376 311 482 240 422 265 b 306 481 331 357 306 417 b 342 608 306 526 318 571 l 350 621 l 182 789 l 168 772 b 68 479 103 688 68 586 b 208 142 68 351 118 232 b 546 1 299 51 418 1 b 839 101 653 1 754 36 l 856 115 l 688 283 z "},"P":{"ha":922,"x_min":0,"x_max":0,"o":"m 846 738 b 772 869 833 788 808 833 b 575 951 719 922 650 951 l 69 951 l 69 603 l 278 394 l 574 394 b 771 476 649 394 718 424 b 793 501 779 485 786 493 b 853 675 832 551 853 611 b 844 740 853 697 850 719 z m 592 625 l 592 625 b 585 617 590 622 588 619 b 526 593 569 601 549 593 l 433 593 l 304 722 l 304 754 l 528 754 b 586 731 550 754 571 746 b 607 693 597 719 604 707 b 610 674 608 688 610 681 b 593 625 610 656 604 639 z m 69 4 l 306 4 l 306 261 l 69 497 z "},"Q":{"ha":1093,"x_min":0,"x_max":0,"o":"m 789 232 l 783 238 l 549 238 l 544 238 l 544 238 b 378 308 482 239 422 264 b 307 478 332 354 307 414 b 364 633 307 535 328 590 b 376 649 368 639 372 644 b 447 699 397 669 421 686 b 546 719 478 713 511 719 b 715 649 610 719 669 694 b 786 479 761 603 786 543 b 765 381 786 444 779 411 l 760 368 l 932 196 l 944 215 b 1022 476 996 293 1022 383 b 882 814 1022 604 972 724 b 544 954 792 904 672 954 b 283 876 451 954 361 928 b 193 799 250 854 219 828 b 68 478 113 711 68 597 b 124 254 68 400 88 322 b 271 86 158 188 210 129 b 544 -1 351 29 446 -1 l 1018 -1 l 867 150 z "},"R":{"ha":1113,"x_min":0,"x_max":0,"o":"m 678 358 b 690 358 682 358 686 358 l 693 358 l 693 358 b 896 444 769 360 842 390 b 982 644 949 497 979 568 b 983 674 983 654 983 664 b 975 739 983 696 981 718 b 901 871 963 789 938 835 b 760 947 863 910 814 936 b 706 953 742 951 724 953 l 68 953 l 68 604 l 304 368 l 304 369 l 671 4 l 676 -1 l 1043 -1 z m 661 593 l 435 593 l 322 706 l 736 706 b 740 693 738 701 739 697 b 742 685 742 690 742 688 b 742 681 742 683 742 682 b 742 676 742 679 742 678 b 735 642 742 664 739 653 b 731 633 733 639 732 636 b 729 629 731 632 731 631 b 725 625 728 628 726 626 l 725 625 b 725 625 725 625 725 625 l 725 625 b 725 625 725 625 725 625 b 721 621 724 624 722 622 b 692 601 713 613 703 606 b 679 597 688 600 683 599 b 663 596 674 596 668 596 z m 71 1 l 307 1 l 307 264 l 71 500 z "},"S":{"ha":1093,"x_min":0,"x_max":0,"o":"m 415 954 l 651 718 l 1024 718 l 1024 954 z m 1011 382 l 1007 392 b 1007 396 1007 393 1007 394 l 1007 396 b 1007 396 1007 396 1007 396 l 1003 408 l 1003 408 b 1003 408 1003 408 1003 408 l 1001 411 b 993 428 999 417 996 422 l 992 429 b 979 454 988 438 983 446 l 978 457 b 974 461 976 458 975 460 l 974 461 b 969 465 972 463 971 464 l 969 465 b 965 474 968 468 967 471 l 964 475 b 964 475 964 475 964 475 b 960 479 963 476 961 478 l 960 479 b 960 483 960 481 960 482 l 957 486 b 953 490 956 488 954 489 b 940 503 949 494 944 499 l 940 503 b 936 507 939 504 938 506 l 936 507 b 932 508 935 508 933 508 l 929 511 b 929 511 929 511 929 511 l 929 511 b 925 515 928 513 926 514 b 918 521 922 518 919 519 l 918 521 b 901 533 913 525 907 529 l 900 535 b 892 539 897 536 894 538 l 892 539 b 883 543 889 540 886 542 l 876 547 l 876 547 b 864 556 872 550 868 553 l 864 556 b 856 560 861 557 858 558 l 856 560 b 851 560 854 560 853 560 l 851 560 b 839 564 847 561 843 563 l 838 564 b 829 568 835 565 832 567 l 828 568 b 811 572 822 569 817 571 l 810 572 b 801 576 807 574 804 575 l 801 576 b 797 576 800 576 799 576 l 794 578 l 793 578 b 785 581 790 579 788 581 l 783 581 b 775 581 781 581 778 581 l 771 581 b 763 581 768 581 765 581 l 761 581 b 757 581 760 581 758 581 l 757 581 b 749 581 754 581 751 581 l 749 581 b 749 581 749 581 749 581 b 744 581 747 581 746 581 l 743 581 b 739 581 742 581 740 581 b 731 581 736 581 733 581 l 728 581 b 724 581 726 581 725 581 l 722 581 b 718 581 721 581 719 581 l 358 581 b 297 642 325 581 297 608 b 358 703 297 675 325 703 l 535 703 l 303 935 l 293 932 b 272 926 286 931 279 929 b 147 851 225 913 182 886 b 72 726 113 817 86 774 b 60 640 64 699 60 669 b 72 554 60 611 64 582 b 147 429 86 507 113 464 b 272 354 182 394 225 368 b 358 342 300 346 329 342 l 718 342 b 779 281 751 342 779 314 b 718 219 779 247 751 219 l 61 219 l 61 -17 l 718 -17 b 897 43 783 -17 846 4 b 1003 194 947 81 985 135 b 1015 281 1011 222 1015 251 b 1003 367 1015 310 1011 339 z "},"T":{"ha":1093,"x_min":0,"x_max":0,"o":"m 428 0 l 664 0 l 664 258 l 428 494 z m 69 954 l 69 718 l 428 718 l 428 603 l 664 367 l 664 718 l 1024 718 l 1024 954 z "},"U":{"ha":1093,"x_min":0,"x_max":0,"o":"m 788 954 l 788 476 b 717 307 788 413 763 353 b 675 274 704 294 690 283 l 656 261 l 826 90 l 840 100 b 974 264 896 143 942 200 b 1024 478 1007 331 1024 403 l 1024 956 z m 563 239 b 546 239 557 239 551 239 b 376 310 482 239 422 264 b 306 479 331 356 306 415 l 306 506 l 68 743 l 68 481 b 275 88 68 324 146 176 b 544 4 354 33 447 4 b 732 42 610 4 672 17 l 758 53 l 569 242 z m 304 958 l 67 958 l 67 851 l 304 614 z "},"V":{"ha":1069,"x_min":0,"x_max":0,"o":"m 331 981 l 69 981 l 535 0 l 661 265 l 665 274 l 447 735 z m 739 979 l 582 647 l 578 639 l 708 363 l 733 414 l 733 414 l 1001 979 z "},"W":{"ha":1364,"x_min":0,"x_max":0,"o":"m 722 786 l 693 850 l 675 813 l 532 510 l 329 936 l 69 936 l 514 0 l 803 611 z m 1035 938 l 849 547 l 836 519 l 836 519 l 719 275 l 721 272 l 721 272 l 831 43 l 850 1 l 978 269 l 1296 938 z "},"X":{"ha":1350,"x_min":0,"x_max":0,"o":"m 104 35 l 69 0 l 404 0 l 639 226 l 472 393 z m 1250 36 l 1163 125 l 860 428 l 1103 669 l 1108 675 l 1108 1010 l 1075 976 l 693 596 l 310 975 l 276 1008 l 276 674 l 533 422 l 947 6 l 1282 6 z "},"Y":{"ha":1428,"x_min":0,"x_max":0,"o":"m 596 0 l 832 0 l 832 83 l 596 319 z m 1025 954 l 715 644 l 411 949 l 406 954 l 71 954 l 597 428 l 597 428 l 801 224 l 833 192 l 833 428 l 1360 954 z "},"Z":{"ha":1428,"x_min":0,"x_max":0,"o":"m 640 236 l 1358 954 l 225 954 l 225 718 l 788 718 l 69 0 l 404 0 l 640 236 z m 513 0 l 1179 0 l 1179 236 l 749 236 z "},"a":{"ha":971,"x_min":0,"x_max":0,"o":"m 69 0 l 264 0 l 454 313 l 357 474 z m 485 685 l 388 525 l 665 65 l 706 -1 l 900 -1 z "},"b":{"ha":722,"x_min":0,"x_max":0,"o":"m 653 475 b 647 524 653 492 651 508 b 454 674 625 613 546 674 l 69 674 l 69 396 l 236 229 l 236 249 l 417 249 b 468 197 444 249 468 225 b 417 146 468 169 444 146 l 236 146 l 236 153 l 69 319 l 69 1 l 454 1 b 471 1 460 1 465 1 b 647 150 556 8 626 68 b 653 199 651 165 653 182 b 596 338 653 250 632 300 b 653 476 632 375 653 425 z m 236 524 l 417 524 b 468 472 444 524 468 500 b 417 421 468 444 444 421 l 281 421 l 236 465 z "},"c":{"ha":826,"x_min":0,"x_max":0,"o":"m 258 424 b 292 469 267 440 278 456 b 417 521 325 503 369 521 b 542 469 464 521 508 503 b 579 413 558 453 571 433 l 582 404 l 758 404 l 754 421 b 633 613 738 496 694 564 b 415 690 572 663 494 690 b 129 542 301 690 194 635 l 122 532 l 249 406 z m 575 276 b 538 219 567 256 554 236 b 492 186 524 206 508 194 b 475 179 486 183 481 181 b 422 167 458 172 440 168 b 397 167 414 167 406 167 b 288 217 356 169 317 188 b 238 326 258 246 240 285 l 238 332 l 93 476 l 86 456 b 67 340 74 418 67 379 b 168 94 67 247 103 160 b 414 -7 233 29 321 -7 b 550 21 461 -7 507 3 b 575 32 558 24 567 28 b 690 128 619 56 660 89 b 754 265 721 168 743 215 l 758 282 l 582 282 z "},"d":{"ha":808,"x_min":0,"x_max":0,"o":"m 679 528 b 679 528 679 528 679 528 b 404 672 617 618 514 672 l 69 672 l 69 482 l 236 315 l 236 506 l 404 506 b 542 433 458 506 510 479 l 542 433 b 542 433 542 433 542 433 b 571 338 561 406 571 372 b 542 242 571 303 561 269 b 542 242 542 242 542 242 b 415 171 513 200 467 174 b 403 171 411 171 407 171 l 235 171 l 235 242 l 68 408 l 68 3 l 403 3 b 678 147 513 3 615 57 b 678 151 678 149 678 150 b 735 340 715 207 735 272 b 675 531 735 408 714 475 z "},"e":{"ha":700,"x_min":0,"x_max":0,"o":"m 236 167 l 236 214 l 69 381 l 69 0 l 631 0 l 631 167 z m 631 253 l 631 419 l 340 419 l 253 507 l 629 507 l 629 674 l 68 674 l 68 457 l 271 254 z "},"f":{"ha":719,"x_min":0,"x_max":0,"o":"m 69 576 l 69 0 l 236 0 l 236 253 l 465 253 l 465 419 l 226 419 z m 69 672 l 69 653 l 236 486 l 236 506 l 650 506 l 650 672 z "},"g":{"ha":811,"x_min":0,"x_max":0,"o":"m 269 438 b 286 457 275 444 281 451 b 407 507 318 489 361 507 b 528 457 453 507 496 489 b 564 403 543 442 556 424 l 567 394 l 739 394 l 735 411 b 597 615 717 494 668 567 b 406 675 540 654 474 675 b 150 556 307 675 214 632 l 142 546 l 261 426 z m 442 282 l 503 199 b 407 169 475 179 442 169 b 286 219 361 169 318 188 b 236 340 254 251 236 294 b 238 365 236 349 236 357 l 239 372 l 110 501 l 101 485 b 68 339 79 439 68 390 b 167 100 68 249 103 164 b 406 1 231 36 315 1 b 575 47 465 1 524 17 l 575 3 l 742 3 l 742 282 z "},"h":{"ha":725,"x_min":0,"x_max":0,"o":"m 69 0 l 236 0 l 236 235 l 69 401 z m 489 674 l 489 419 l 363 419 l 236 546 l 236 674 l 69 674 l 69 476 l 293 253 l 489 253 l 489 0 l 656 0 l 656 672 z "},"i":{"ha":306,"x_min":0,"x_max":0,"o":"m 69 672 l 69 589 l 236 422 l 236 672 z m 69 0 l 236 0 l 236 347 l 69 514 z "},"j":{"ha":672,"x_min":0,"x_max":0,"o":"m 435 658 l 435 499 l 603 331 l 603 658 z m 435 422 l 435 249 b 406 190 431 219 415 200 b 344 161 396 181 375 164 b 340 161 343 161 342 161 b 336 161 339 161 338 161 b 332 161 335 161 333 161 b 328 161 331 161 329 161 b 319 161 325 161 322 161 b 319 161 319 161 319 161 b 297 168 311 163 304 165 b 293 168 296 168 294 168 b 272 181 285 172 278 176 b 268 185 271 182 269 183 b 263 189 265 186 264 188 b 242 218 257 194 249 204 b 233 247 238 226 235 236 l 72 247 b 293 3 79 124 172 22 b 297 3 294 3 296 3 b 297 3 297 3 297 3 b 318 0 304 1 311 0 b 335 0 324 0 329 0 b 339 0 336 0 338 0 b 351 0 343 0 347 0 b 364 0 356 0 360 0 b 381 3 369 0 375 1 l 381 3 b 601 257 504 24 599 129 l 601 257 l 601 257 z "},"k":{"ha":833,"x_min":0,"x_max":0,"o":"m 69 0 l 236 0 l 236 215 l 69 382 z m 464 299 l 736 479 l 742 483 l 742 683 l 343 419 l 76 672 l 68 672 l 68 457 l 526 -1 l 763 -1 z "},"l":{"ha":607,"x_min":0,"x_max":0,"o":"m 261 167 l 236 167 l 236 672 l 69 672 l 69 0 l 428 0 l 265 163 z m 338 167 l 504 0 l 538 0 l 538 167 z "},"m":{"ha":811,"x_min":0,"x_max":0,"o":"m 69 0 l 236 0 l 236 219 l 69 386 z m 717 672 l 407 363 l 97 672 l 71 672 l 71 463 l 238 296 l 238 296 l 407 126 l 576 296 l 576 0 l 743 0 l 743 672 z "},"n":{"ha":758,"x_min":0,"x_max":0,"o":"m 69 0 l 236 0 l 236 219 l 69 386 z m 526 529 l 522 525 l 522 246 l 99 669 l 94 674 l 68 674 l 68 464 l 235 297 l 235 297 l 342 190 l 525 7 l 532 0 l 689 0 l 689 692 z "},"o":{"ha":811,"x_min":0,"x_max":0,"o":"m 643 574 b 404 672 579 638 494 672 b 199 601 329 672 258 647 l 186 592 l 306 472 l 315 478 b 406 503 342 494 374 503 b 526 453 451 503 494 485 b 576 332 558 421 576 378 b 551 242 576 300 568 268 l 546 232 l 665 113 l 675 125 b 746 331 721 185 746 256 b 647 569 746 421 711 506 z m 500 189 b 410 164 474 172 442 164 b 289 214 364 164 321 182 b 239 335 257 246 239 289 b 264 425 239 367 247 399 l 269 435 l 150 554 l 140 542 b 69 336 94 482 69 411 b 168 97 69 246 104 161 b 407 -1 232 33 317 -1 b 613 69 482 -1 553 24 l 625 79 l 506 199 z "},"p":{"ha":692,"x_min":0,"x_max":0,"o":"m 617 519 b 565 611 608 554 590 586 b 426 669 528 649 479 669 l 71 669 l 71 424 l 218 276 l 426 276 b 565 335 479 276 528 297 b 581 351 571 340 576 346 b 622 472 608 386 622 428 b 617 518 622 488 621 503 z m 439 436 l 439 436 b 435 432 438 435 436 433 b 394 415 424 421 410 415 l 329 415 l 238 507 l 238 529 l 394 529 b 435 513 410 529 424 524 b 450 486 442 506 447 496 b 451 474 451 482 451 478 b 439 439 451 461 447 449 z m 71 1 l 238 1 l 238 183 l 71 350 z "},"q":{"ha":811,"x_min":0,"x_max":0,"o":"m 576 163 l 572 167 l 407 167 l 404 167 l 404 167 b 286 217 360 167 318 185 b 236 338 254 249 236 292 b 276 447 236 378 250 417 b 285 457 279 451 282 454 b 336 492 300 472 317 483 b 406 507 358 501 382 507 b 526 457 451 507 494 489 b 576 336 558 425 576 382 b 561 267 576 313 571 289 l 557 258 l 678 138 l 688 151 b 743 335 724 206 743 269 b 644 574 743 425 708 510 b 406 672 581 638 496 672 b 221 617 340 672 276 653 b 156 563 197 601 175 583 b 68 336 99 500 68 419 b 107 179 68 282 82 228 b 211 61 132 132 168 92 b 404 0 268 21 335 0 l 738 0 l 631 107 z "},"r":{"ha":825,"x_min":0,"x_max":0,"o":"m 499 253 b 507 253 501 253 504 253 l 510 253 l 510 253 b 651 314 564 254 614 276 b 714 456 689 351 711 401 b 715 476 715 463 715 469 b 710 522 715 492 714 507 b 658 614 701 557 683 589 b 558 667 631 642 596 660 b 521 671 546 669 533 671 l 71 671 l 71 425 l 238 258 l 238 258 l 496 1 l 500 -3 l 758 -3 z m 489 417 l 329 417 l 250 496 l 542 496 b 546 488 543 493 544 490 b 546 479 546 485 546 482 b 546 475 546 478 546 476 b 546 471 546 474 546 472 b 542 447 546 463 544 454 b 538 439 540 444 539 442 b 538 435 538 438 538 436 b 536 431 536 433 536 432 l 536 431 b 536 431 536 431 536 431 l 536 431 b 536 431 536 431 536 431 b 532 426 535 429 533 428 b 511 414 526 421 519 417 b 503 411 508 413 506 411 b 490 410 499 410 494 410 z m 74 -10 l 240 -10 l 240 175 l 74 342 z "},"s":{"ha":811,"x_min":0,"x_max":0,"o":"m 313 672 l 479 506 l 742 506 l 742 672 z m 733 269 l 731 276 b 731 281 731 278 731 279 l 731 281 b 731 281 731 281 731 281 l 728 289 l 728 289 b 728 289 728 289 728 289 l 726 292 b 722 304 725 296 724 300 l 722 306 b 714 322 719 311 717 317 l 713 324 b 713 328 713 325 713 326 l 713 328 b 708 332 711 329 710 331 l 708 332 b 704 336 707 333 706 335 l 704 338 b 704 338 704 338 704 338 b 704 342 704 339 704 340 l 704 342 b 704 342 704 342 704 342 l 703 344 b 703 344 703 344 703 344 b 694 353 700 347 697 350 l 694 353 b 690 357 693 354 692 356 l 690 357 b 690 357 690 357 690 357 l 689 358 b 689 358 689 358 689 358 l 689 358 b 685 363 688 360 686 361 b 681 367 683 364 682 365 l 681 367 b 668 375 676 369 672 372 l 667 375 b 663 379 665 376 664 378 l 663 379 b 657 383 661 381 660 382 l 653 386 l 653 386 b 644 390 650 388 647 389 l 644 390 b 640 394 643 392 642 393 l 640 394 b 636 394 639 394 638 394 l 636 394 b 628 399 633 396 631 397 l 628 399 b 619 403 625 400 622 401 l 618 403 b 607 407 615 404 611 406 l 607 407 b 603 407 606 407 604 407 l 603 407 b 603 407 603 407 603 407 l 601 408 l 600 408 b 592 408 597 408 594 408 l 592 408 b 588 408 590 408 589 408 l 585 408 b 579 408 582 408 581 408 l 579 408 b 575 408 578 408 576 408 l 575 408 b 568 408 574 408 571 408 l 568 408 b 568 408 568 408 568 408 b 568 408 568 408 568 408 l 567 408 b 567 408 567 408 567 408 b 561 408 565 408 564 408 l 560 408 b 560 408 560 408 560 408 l 558 408 b 554 408 557 408 556 408 l 301 408 b 258 451 278 408 258 428 b 301 494 258 475 278 494 l 426 494 l 264 657 l 257 656 b 242 651 253 654 247 653 b 153 599 208 642 178 624 b 100 510 128 574 110 543 b 92 449 94 490 92 469 b 100 388 92 428 94 407 b 153 299 110 354 128 324 b 242 246 178 274 208 256 b 303 238 261 240 282 238 l 556 238 b 599 194 579 238 599 218 b 556 151 599 171 579 151 l 93 151 l 93 -15 l 556 -15 b 681 28 601 -15 644 0 b 756 133 717 54 743 92 b 764 194 761 153 764 174 b 756 256 764 215 761 236 z "},"t":{"ha":811,"x_min":0,"x_max":0,"o":"m 322 0 l 489 0 l 489 182 l 322 349 z m 69 672 l 69 506 l 322 506 l 322 425 l 489 258 l 489 506 l 742 506 l 742 672 z "},"u":{"ha":811,"x_min":0,"x_max":0,"o":"m 575 672 l 575 336 b 525 215 575 290 557 247 b 497 192 517 207 507 199 l 483 183 l 604 63 l 614 69 b 707 185 653 100 685 140 b 743 335 731 232 743 282 l 743 671 z m 418 165 b 406 165 414 165 410 165 b 285 215 360 165 317 183 b 235 336 253 247 235 290 l 235 354 l 68 521 l 68 336 b 214 58 68 225 122 121 b 403 -1 269 19 335 -1 b 535 26 449 -1 493 8 l 553 35 l 419 168 z m 232 674 l 65 674 l 65 599 l 232 432 z "},"v":{"ha":796,"x_min":0,"x_max":0,"o":"m 254 690 l 69 690 l 397 0 l 486 188 l 489 193 l 335 518 z m 540 690 l 429 457 l 426 450 l 518 256 l 536 292 l 536 292 l 725 690 z "},"w":{"ha":1019,"x_min":0,"x_max":0,"o":"m 539 565 l 518 611 l 506 585 l 403 367 l 257 674 l 71 674 l 390 0 l 599 439 z m 765 674 l 632 393 l 622 374 l 622 374 l 538 199 l 539 197 l 539 197 l 618 32 l 632 1 l 724 194 l 951 675 z "},"x":{"ha":992,"x_min":0,"x_max":0,"o":"m 93 24 l 69 0 l 306 0 l 471 160 l 353 278 z m 901 26 l 840 89 l 626 303 l 797 472 l 801 476 l 801 713 l 778 689 l 508 421 l 238 688 l 214 711 l 214 475 l 394 297 l 686 4 l 922 4 z "},"y":{"ha":1047,"x_min":0,"x_max":0,"o":"m 440 0 l 607 0 l 607 60 l 440 226 z m 743 674 l 524 454 l 308 669 l 304 674 l 68 674 l 439 303 l 439 303 l 582 160 l 606 138 l 606 303 l 976 674 z "},"z":{"ha":1047,"x_min":0,"x_max":0,"o":"m 472 167 l 978 672 l 179 672 l 179 506 l 576 506 l 71 0 l 307 0 l 474 167 z m 383 0 l 854 0 l 854 167 l 550 167 z "}," ":{"ha":660,"x_min":0,"x_max":0,"o":""}}}
